<svg width="76" height="96" viewBox="0 0 76 96" fill="none" xmlns="http://www.w3.org/2000/svg">
<path d="M21.75 24.1328V8.84376C21.75 6.64846 22.6523 4.64846 24.1016 3.19926C25.543 1.74616 27.5469 0.847656 29.75 0.847656H67.957C70.1601 0.847656 72.1601 1.7461 73.6093 3.19536C75.0546 4.65236 75.957 6.65236 75.957 8.84766V87.1637C75.957 89.359 75.0546 91.359 73.6054 92.8082C72.164 94.2613 70.1601 95.1598 67.957 95.1598H29.75C27.5469 95.1598 25.5469 94.2613 24.0977 92.8121C22.6524 91.3551 21.75 89.3551 21.75 87.1598V69.2808H6.04297C4.39067 69.2808 2.88677 68.605 1.80467 67.5191C0.718768 66.4332 0.0429688 64.9332 0.0429688 63.2808V37.6088C0.0429688 35.9565 0.718748 34.4565 1.80467 33.3705C2.60154 32.5736 3.62887 31.9955 4.76947 31.7494C4.73431 30.3392 5.19916 29.0033 6.01557 27.9408C6.94916 26.7299 8.35537 25.8666 9.99607 25.6556L21.75 24.1328ZM48.195 61.6168C47.4801 60.7808 47.5778 59.5191 48.4137 58.8043C49.2497 58.0894 50.5114 58.1871 51.2262 59.023L51.8122 59.7066L53.9216 55.4918C54.4138 54.5074 55.6091 54.109 56.5935 54.6012C57.5778 55.0934 57.9763 56.2887 57.4841 57.2731L54.0818 64.0739C53.9646 64.3434 53.7849 64.5934 53.5466 64.8004C52.7107 65.5153 51.4489 65.4176 50.7341 64.5817L48.195 61.6208L48.195 61.6168ZM54.2497 47.6948C55.4059 47.8393 56.5114 48.1479 57.5466 48.5932L54.6091 25.9132C54.5388 25.3741 54.2458 24.9054 53.8395 24.589C53.4333 24.2765 52.902 24.1124 52.3551 24.1867L10.5001 29.6086C9.96108 29.6789 9.49234 29.9718 9.17594 30.3781C8.91032 30.7218 8.75406 31.1554 8.75406 31.6086H48.2501C49.9024 31.6086 51.4063 32.2844 52.4884 33.3703C53.5743 34.4562 54.2501 35.9562 54.2501 37.6086L54.2497 47.6948ZM61.9059 51.769C63.7926 53.9213 64.9371 56.7456 64.9371 59.8315C64.9371 63.2104 63.566 66.269 61.3551 68.4838C59.1442 70.6947 56.0817 72.0658 52.7028 72.0658C49.7536 72.0658 47.0466 71.0189 44.9333 69.2806H25.7453V87.1596C25.7453 88.2612 26.1945 89.2651 26.9133 89.9838C27.6476 90.7103 28.6477 91.1596 29.7453 91.1596H67.9523C69.05 91.1596 70.05 90.7064 70.7765 89.9838C71.503 89.265 71.9523 88.265 71.9523 87.1596V8.84356C71.9523 7.74196 71.5031 6.73806 70.7843 6.01936C70.0499 5.2928 69.0499 4.84356 67.9523 4.84356H61.2921L60.8194 6.10136C60.3741 7.28496 59.6006 8.25756 58.6202 8.93336C57.6358 9.61305 56.4561 9.99196 55.1983 9.99196H42.5033C41.2455 9.99196 40.0658 9.61305 39.0814 8.93336C38.1009 8.25367 37.3275 7.28496 36.8822 6.10136L36.4095 4.84356H29.7493C28.6516 4.84356 27.6516 5.29668 26.9251 6.01936C26.1986 6.73811 25.7493 7.73816 25.7493 8.84356V23.6166L51.8544 20.2338C53.4872 20.0228 55.0653 20.4994 56.2763 21.433C57.4872 22.3665 58.3504 23.7689 58.5614 25.4096L61.8584 50.8706C61.8974 51.1752 61.913 51.476 61.9052 51.7651L61.9059 51.769ZM41.7499 65.285C40.9296 63.6444 40.4726 61.7928 40.4726 59.8358C40.4726 56.4569 41.8437 53.3983 44.0546 51.1835C45.7148 49.5233 47.8554 48.3358 50.2499 47.8476V37.6136C50.2499 37.0667 50.0233 36.5667 49.66 36.2034C49.2968 35.8401 48.7967 35.6135 48.2498 35.6135H6.04283C5.49595 35.6135 4.99203 35.8401 4.63263 36.2034C4.26935 36.5666 4.04279 37.0666 4.04279 37.6136V40.387H39.8668C40.9723 40.387 41.8668 41.2815 41.8668 42.387C41.8668 43.4924 40.9723 44.387 39.8668 44.387H4.04279V63.285C4.04279 63.8318 4.26935 64.3319 4.63263 64.6952C4.99591 65.0584 5.49591 65.285 6.04283 65.285L41.7499 65.285ZM58.5269 54.012C57.0386 52.5237 54.9761 51.6018 52.7027 51.6018C50.4293 51.6018 48.3707 52.5236 46.8785 54.012C45.3902 55.5003 44.4683 57.5628 44.4683 59.8362C44.4683 62.1096 45.3902 64.1682 46.8785 65.6604C48.4488 67.2073 50.4801 68.0706 52.7027 68.0706C54.9761 68.0706 57.0347 67.1487 58.5269 65.6604C60.0152 64.1721 60.9371 62.1096 60.9371 59.8362C60.9371 57.5628 60.0152 55.5042 58.5269 54.012ZM45.8199 44.3831C44.7144 44.3831 43.816 43.4885 43.816 42.3831C43.816 41.2776 44.7105 40.3831 45.816 40.3831C46.9254 40.3831 47.8199 41.2776 47.8199 42.3831C47.8199 43.4886 46.9253 44.3831 45.816 44.3831H45.8199ZM30.6319 60.9451C29.5264 60.9451 28.6319 60.0505 28.6319 58.9451C28.6319 57.8396 29.5264 56.9451 30.6319 56.9451H33.5225C34.628 56.9451 35.5225 57.8396 35.5225 58.9451C35.5225 60.0506 34.6279 60.9451 33.5225 60.9451H30.6319ZM20.1749 60.9451C19.0694 60.9451 18.1749 60.0505 18.1749 58.9451C18.1749 57.8396 19.0694 56.9451 20.1749 56.9451H23.0655C24.171 56.9451 25.0655 57.8396 25.0655 58.9451C25.0655 60.0506 24.1709 60.9451 23.0655 60.9451H20.1749ZM9.71787 60.9451C8.61237 60.9451 7.71787 60.0505 7.71787 58.9451C7.71787 57.8396 8.6124 56.9451 9.71787 56.9451H12.6085C13.714 56.9451 14.6085 57.8396 14.6085 58.9451C14.6085 60.0506 13.7139 60.9451 12.6085 60.9451H9.71787ZM42.9129 87.2611C41.8074 87.2611 40.9129 86.3665 40.9129 85.2611C40.9129 84.1556 41.8074 83.2611 42.9129 83.2611H54.7879C55.8934 83.2611 56.7879 84.1556 56.7879 85.2611C56.7879 86.3665 55.8933 87.2611 54.7879 87.2611H42.9129ZM57.0219 4.84706H40.6779C40.8341 5.1869 41.0646 5.46425 41.3458 5.65565C41.6623 5.8744 42.0607 5.99549 42.502 5.99549H55.197C55.6384 5.99549 56.0369 5.8744 56.3532 5.65565C56.6345 5.46034 56.8617 5.1869 57.0219 4.84706Z" fill="black"/>
</svg>
