<svg width="81" height="80" viewBox="0 0 81 80" fill="none" xmlns="http://www.w3.org/2000/svg">
<path d="M46.7118 46.3122C46.7118 45.5544 46.4188 44.8434 45.8837 44.3083C45.3485 43.7731 44.6376 43.4802 43.8798 43.4802H37.6298C32.2978 43.4802 27.9618 39.1443 27.9618 33.8122C27.9618 31.2302 28.9696 28.8005 30.7938 26.9763C32.5516 25.2185 34.8641 24.2224 37.3368 24.1482V19.9451H44.1727V24.1482C49.368 24.3044 53.5477 28.5779 53.5477 33.8123H46.7118C46.7118 32.2498 45.4423 30.9803 43.8798 30.9803H37.6298C36.872 30.9803 36.161 31.2732 35.6259 31.8084C35.0908 32.3435 34.7977 33.0545 34.7977 33.8123C34.7977 35.3748 36.0672 36.6443 37.6297 36.6443H43.8797C46.4617 36.6443 48.8914 37.6521 50.7156 39.4763C52.5398 41.3005 53.5476 43.7302 53.5476 46.3122C53.5476 51.5466 49.3679 55.82 44.1726 55.9763V60.1794H37.3367V55.9763C32.1414 55.82 27.9617 51.5466 27.9617 46.3122H34.7976C34.7976 47.8747 36.0671 49.1442 37.6296 49.1442H43.8796C45.4421 49.1481 46.7118 47.8747 46.7118 46.3122ZM11.0708 6.37417H3.25829V11.257H11.0708V6.37417ZM79.8908 14.8117L64.2658 0.749673C63.547 0.105143 62.5197 -0.0589173 61.6408 0.335613C60.758 0.726233 60.1916 1.60121 60.1916 2.56611V6.37471H15.7576V11.2575H62.6326C63.9803 11.2575 65.074 10.1637 65.074 8.81611V8.04658L74.6092 16.6286L65.074 25.2106V24.4411C65.074 23.0934 63.9802 21.9997 62.6326 21.9997H56.3826V26.8825H60.1912V30.6911C60.1912 31.6559 60.7576 32.527 61.6404 32.9216C61.9607 33.0622 62.2966 33.1325 62.6326 33.1325C63.2263 33.1325 63.8084 32.9177 64.2654 32.5075L79.8904 18.4455C80.406 17.9846 80.699 17.3205 80.699 16.633C80.6951 15.9377 80.4021 15.2736 79.8904 14.8127L79.8908 14.8117ZM70.4455 73.7567H78.258V68.8739H70.4455V73.7567ZM16.4375 71.3114V72.0809L6.90229 63.4989L16.4375 54.9169V55.6864C16.4375 57.0341 17.5313 58.1278 18.8789 58.1278H25.1289V53.245H21.3203V49.4364C21.3203 48.4716 20.7539 47.6005 19.8711 47.2059C18.9883 46.8153 17.9609 46.9755 17.2461 47.62L1.62109 61.682C1.10547 62.1429 0.8125 62.807 0.8125 63.4945C0.8125 64.1859 1.10547 64.8461 1.62109 65.307L17.2461 79.369C17.7031 79.7792 18.2891 79.994 18.8789 79.994C19.2148 79.994 19.5508 79.9237 19.8711 79.7831C20.7539 79.3924 21.3203 78.5175 21.3203 77.5526V73.744H65.7543V68.8612H18.8793C17.5316 68.8729 16.4379 69.9628 16.4379 71.3104L16.4375 71.3114Z" fill="black"/>
</svg>
