<svg xmlns="http://www.w3.org/2000/svg" fill="none" viewBox="0 0 24 24" id="wallet">
  <path fill="#7d5af6" d="M14 16.25a.75.75 0 0 0 0 1.5h3a.75.75 0 0 0 0-1.5h-3Z" class="color292d32 svgShape"></path>
  <path fill="#7d5af6" fill-rule="evenodd" d="M9.442 1.25h2.103c1.135 0 2.05 0 2.779.082.754.085 1.403.266 1.959.693.26.2.493.432.692.692.248.323.413.678.524 1.066A3.75 3.75 0 0 1 20.75 7.5v1.511c.14.099.275.21.402.337.602.602.86 1.36.982 2.26.116.867.116 1.97.116 3.337v.61c0 1.367 0 2.47-.116 3.337-.122.9-.38 1.658-.982 2.26-.602.602-1.36.86-2.26.982-.867.116-1.97.116-3.337.116h-7.11c-1.367 0-2.47 0-3.337-.116-.9-.122-1.658-.38-2.26-.982-.602-.602-.86-1.36-.981-2.26-.117-.867-.117-1.97-.117-3.337V6.5h.01a3 3 0 0 1 2.99-2.75h.714a3.75 3.75 0 0 1 3.047-2.468c.244-.032.522-.032.931-.032Zm8.308 6.205c0-.801 0-1.493-.029-2.087A2.251 2.251 0 0 1 19.25 7.5v.75h-1.5v-.795ZM5.25 5.25h-.5a1.5 1.5 0 0 0-1.495 1.38A1.75 1.75 0 0 0 5 8.25h.25v-3Zm-.5 4.5a2.986 2.986 0 0 1-1.5-.401V15.5c0 1.435.002 2.436.103 3.192.099.734.28 1.122.556 1.399.277.277.665.457 1.4.556.754.101 1.756.103 3.191.103h7c1.435 0 2.436-.002 3.192-.103.734-.099 1.122-.28 1.399-.556.277-.277.457-.665.556-1.4.101-.755.103-1.756.103-3.191V15c0-1.435-.002-2.437-.103-3.192-.099-.734-.28-1.122-.556-1.399-.277-.277-.665-.457-1.4-.556-.755-.101-1.756-.103-3.191-.103H4.75Zm11.5-1.5h-9.5V5.5c0-.488.002-.66.02-.794A2.25 2.25 0 0 1 8.705 2.77c.134-.017.306-.019.794-.019h2c1.19 0 2.02.001 2.656.073.62.07.962.199 1.214.392.156.12.295.26.415.415.193.252.322.594.392 1.214.072.636.073 1.466.073 2.656v.75Z" clip-rule="evenodd" class="color292d32 svgShape"></path>
</svg>
